<svg width="24" height="24" viewBox="0 0 24 24" fill="none" xmlns="http://www.w3.org/2000/svg">
<path d="M20 20C18.61 20 17.22 19.53 16 18.67C13.56 20.38 10.44 20.38 8 18.67C6.78 19.53 5.39 20 4 20H2V22H4C5.37 22 6.74 21.65 8 21C10.5 22.3 13.5 22.3 16 21C17.26 21.65 18.62 22 20 22H22V20H20ZM20.78 19H20C18.82 19 17.64 18.6 16.58 17.85L16 17.45L15.42 17.85C14.39 18.57 13.21 18.95 12 18.95C10.77 18.95 9.59 18.57 8.56 17.85L8 17.45L7.43 17.85C6.36 18.6 5.18 19 4 19H3.22C3.75 17.54 5.58 15 12 15C14 15 15 15.24 15 15.24C15.68 13.87 16.83 10.77 16 6.82L17.06 7.53C17.39 8.96 18 11.75 16.8 15.65C19.43 16.5 20.42 18 20.78 19V19ZM22 7.59C21.21 6.5 20 5.71 18.58 5.53C18.7 5.67 18.81 5.83 18.92 6C19.4898 6.90995 19.7535 7.97836 19.6726 9.04894C19.5916 10.1195 19.1702 11.1361 18.47 11.95C19.06 10.5 19 8.79 18.08 7.36C18 7.28 17.96 7.2 17.9 7.11C17.5 6.53 16.96 6.06 16.38 5.72C14.35 6.37 12.88 8.27 12.88 10.5C12.88 11.03 12.96 11.53 13.1 12C12.5 11.17 12.16 10.17 12.16 9.07C12.16 7.41 12.96 5.95 14.2 5.03C13.16 4.95 12.09 5.18 11.14 5.78C10.7 6.05 10.32 6.38001 10 6.76C10.39 5.82 11.05 5 12 4.4C13.0041 3.75417 14.2111 3.50137 15.39 3.69C15.092 3.2767 14.7348 2.90944 14.33 2.6C13.92 2.29 13.47 2.05 13 1.88C14 1.91 15.04 2.24001 15.91 2.89C16.35 3.22001 16.7 3.62 17 4.05C17.06 4.05 17.12 4.04 17.19 4.04C18.266 4.03944 19.3139 4.38393 20.1796 5.0229C21.0454 5.66187 21.6834 6.56162 22 7.59V7.59Z" fill="white"/>
</svg>
