<svg width="16" height="16" viewBox="0 0 16 16" fill="none" xmlns="http://www.w3.org/2000/svg">
<path d="M0 3.5C0 4.3125 0.916 5 2 5C2.594 5 3.131 4.791 3.5 4.4705C3.869 4.791 4.4065 5 5 5C5.594 5 6.131 4.791 6.5 4.4705C6.869 4.791 7.4065 5 8 5C8.594 5 9.131 4.791 9.5 4.4705C9.869 4.791 10.4065 5 11 5C11.594 5 12.131 4.791 12.5 4.4705C12.869 4.791 13.4065 5 14 5C15.084 5 16 4.3125 16 3.5H15C15 3.6525 14.621 4 14 4C13.3885 4 13 3.6485 13 3.5H12C12 3.6525 11.621 4 11 4C10.3885 4 10 3.6485 10 3.5H9C9 3.6525 8.621 4 8 4C7.3885 4 7 3.6485 7 3.5H6C6 3.6525 5.623 4 5 4C4.3885 4 4 3.6485 4 3.5H3C3 3.6525 2.623 4 2 4C1.3885 4 1 3.6485 1 3.5H0ZM0 7.5C0 8.3125 0.916 9 2 9C2.594 9 3.131 8.791 3.5 8.4705C3.869 8.791 4.4065 9 5 9C5.594 9 6.131 8.791 6.5 8.4705C6.869 8.791 7.4065 9 8 9C8.594 9 9.131 8.791 9.5 8.4705C9.869 8.791 10.4065 9 11 9C11.594 9 12.131 8.791 12.5 8.4705C12.869 8.791 13.4065 9 14 9C15.084 9 16 8.3125 16 7.5H15C15 7.6525 14.621 8 14 8C13.3885 8 13 7.6485 13 7.5H12C12 7.6525 11.621 8 11 8C10.3885 8 10 7.6485 10 7.5H9C9 7.6525 8.621 8 8 8C7.3885 8 7 7.6485 7 7.5H6C6 7.6525 5.623 8 5 8C4.3885 8 4 7.6485 4 7.5H3C3 7.6525 2.623 8 2 8C1.3885 8 1 7.6485 1 7.5H0ZM0 11.5C0 12.3125 0.916 13 2 13C2.594 13 3.131 12.791 3.5 12.4705C3.869 12.791 4.4065 13 5 13C5.594 13 6.131 12.791 6.5 12.4705C6.869 12.791 7.4065 13 8 13C8.594 13 9.131 12.791 9.5 12.4705C9.869 12.791 10.4065 13 11 13C11.594 13 12.131 12.791 12.5 12.4705C12.869 12.791 13.4065 13 14 13C15.084 13 16 12.3125 16 11.5H15C15 11.6525 14.621 12 14 12C13.3885 12 13 11.6485 13 11.5H12C12 11.6525 11.621 12 11 12C10.3885 12 10 11.6485 10 11.5H9C9 11.6525 8.621 12 8 12C7.3885 12 7 11.6485 7 11.5H6C6 11.6525 5.623 12 5 12C4.3885 12 4 11.6485 4 11.5H3C3 11.6525 2.623 12 2 12C1.3885 12 1 11.6485 1 11.5H0Z" fill="white"/>
</svg>
