<svg width="25" height="25" viewBox="0 0 25 25" fill="none" xmlns="http://www.w3.org/2000/svg">
<path d="M13.2906 2.36015L12.5781 3.65703L7.48281 12.9195L5.98594 11.4227L5.47031 12.2805L0.892187 19.9109L0.183594 21.0937H24.6242L24.157 20.0039L21.8133 14.5352L21.3586 13.475L19.743 15.0906L13.9594 3.68047L13.2914 2.36015H13.2906ZM13.2336 5.70547L15.6086 10.3898L15.0039 10.9086L13.2227 9.38281L11.4422 10.9086L10.7156 10.2844L13.2336 5.70547V5.70547ZM13.2234 11.4398L15.0047 12.9656L16.3344 11.825L18.8344 16.7586L19.3203 17.7219L20.8297 16.2125L22.2516 19.5312H2.94219C4.05938 17.668 5.17812 15.8047 6.29609 13.9422L7.84922 15.4953L8.35078 14.5844C8.88281 13.6172 9.41563 12.6508 9.94688 11.6836L11.4422 12.9648L13.2234 11.4398V11.4398Z" fill="white"/>
</svg>
