<svg width="20" height="20" viewBox="0 0 20 20" fill="none" xmlns="http://www.w3.org/2000/svg">
<path d="M17.5 14.1797V18.75C17.5 19.1016 17.3796 19.3978 17.1387 19.6387C16.8978 19.8796 16.6016 20 16.25 20H11.25V17.5C11.25 17.1484 11.1296 16.8522 10.8887 16.6113C10.6478 16.3704 10.3548 16.25 10.0098 16.25C9.66471 16.25 9.36849 16.3704 9.12109 16.6113C8.8737 16.8522 8.75 17.1484 8.75 17.5V20H3.75C3.41146 20 3.11849 19.8796 2.87109 19.6387C2.6237 19.3978 2.5 19.1016 2.5 18.75V14.1797C1.77083 13.5677 1.17188 12.972 0.703125 12.3926C0.234375 11.8132 0 11.4062 0 11.1719C0 10.4818 0.208333 10.0911 0.625 10C0.768229 10.0521 1.20768 10.2214 1.94336 10.5078C2.67904 10.7943 3.28125 11.0221 3.75 11.1914V8.75C3.00781 8.29427 2.4056 7.81901 1.94336 7.32422C1.48112 6.82943 1.25 6.44531 1.25 6.17188C1.25 5.39062 1.45833 5 1.875 5C2.05729 5.0651 2.42839 5.2181 2.98828 5.45898C3.54818 5.69987 4.04622 5.89193 4.48242 6.03516C4.91862 6.17839 5.29948 6.25 5.625 6.25C5.97656 6.25 6.33138 6.12956 6.68945 5.88867C7.04753 5.64779 7.39909 5.30599 7.74414 4.86328C8.08919 4.42057 8.37565 4.01693 8.60352 3.65234C8.83138 3.28776 9.09505 2.84505 9.39453 2.32422C8.96484 2.08984 8.75 1.73177 8.75 1.25C8.75 0.898438 8.8737 0.602214 9.12109 0.361328C9.36849 0.120443 9.66471 0 10.0098 0C10.3548 0 10.6478 0.120443 10.8887 0.361328C11.1296 0.602214 11.25 0.898438 11.25 1.25C11.25 1.73177 11.0352 2.08984 10.6055 2.32422C10.8919 2.84505 11.1523 3.28776 11.3867 3.65234C11.6211 4.01693 11.9108 4.42057 12.2559 4.86328C12.6009 5.30599 12.9525 5.64779 13.3105 5.88867C13.6686 6.12956 14.0234 6.25 14.375 6.25C14.7005 6.25 15.0814 6.17839 15.5176 6.03516C15.9538 5.89193 16.4518 5.69987 17.0117 5.45898C17.5716 5.2181 17.9427 5.0651 18.125 5C18.5417 5 18.75 5.39062 18.75 6.17188C18.75 6.44531 18.5189 6.82943 18.0566 7.32422C17.5944 7.81901 16.9922 8.29427 16.25 8.75V11.1914C16.7188 11.0221 17.321 10.7943 18.0566 10.5078C18.7923 10.2214 19.2318 10.0521 19.375 10C19.7917 10.0911 20 10.4818 20 11.1719C20 11.4062 19.7656 11.8132 19.2969 12.3926C18.8281 12.972 18.2292 13.5677 17.5 14.1797Z" fill="white"/>
</svg>
