<svg width="20" height="20" viewBox="0 0 20 20" fill="none" xmlns="http://www.w3.org/2000/svg">
<g clip-path="url(#clip0)">
<path d="M17.2 4.00001H20V1.33334H6.66665C6.66665 1.33334 1.33332 1.33334 1.33332 6.66668V14C-0.133347 15.0667 -0.400014 17.2 0.666653 18.6667C1.73332 20.1333 3.86665 20.4 5.33332 19.3333C6.66665 20.4 8.66665 20.1333 9.86665 18.8C10.6667 19.6 11.8667 20 13.0667 20C15.8667 20 18 17.8667 18.1333 15.0667C18.1333 12.9333 16.8 11.0667 14.8 10.4V6.66668C14.6667 5.20001 15.7333 4.00001 17.2 4.00001V4.00001ZM13.3333 10.6667V11.3333C15.3333 11.4667 16.8 13.3333 16.6667 15.3333C16.5333 17.2 14.9333 18.6667 13.0667 18.6667C11.6 18.8 10.6667 17.8667 10.2667 17.3333H9.19999C9.06665 17.6 8.66665 18.6667 7.33332 18.6667C5.99999 18.6667 5.59999 17.8667 5.46665 17.3333H5.19999C4.93332 17.8667 4.53332 18.4 3.99999 18.5333C2.79999 18.9333 1.73332 18.2667 1.46665 17.2C1.19999 16.1333 1.73332 15.0667 2.66665 14.8V8.00001C2.66665 7.33334 3.19999 6.66668 3.99999 6.66668C4.66665 6.66668 5.33332 7.20001 5.33332 8.00001V14C5.33332 14.4 5.59999 14.6667 5.99999 14.6667C6.39999 14.6667 6.66665 14.4 6.66665 14V9.33334C6.66665 8.53334 7.19999 8.00001 7.99999 8.00001C8.79999 8.00001 9.33332 8.53334 9.33332 9.33334V14C9.33332 14.4 9.59999 14.6667 9.99999 14.6667C10.4 14.6667 10.6667 14.4 10.6667 14V8.00001C10.6667 7.20001 11.2 6.66668 12 6.66668C12.8 6.66668 13.3333 7.20001 13.3333 8.00001V10.6667V10.6667Z" fill="white"/>
</g>
<defs>
<clipPath id="clip0">
<rect width="20" height="20" fill="white"/>
</clipPath>
</defs>
</svg>
